<mxfile host="65bd71144e">
    <diagram name="Page-1" id="2Psosl3usSGLXp_8EubP">
        <mxGraphModel dx="2200" dy="1985" grid="1" gridSize="10" guides="1" tooltips="1" connect="1" arrows="1" fold="1" page="1" pageScale="1" pageWidth="827" pageHeight="1169" math="0" shadow="0">
            <root>
                <mxCell id="0"/>
                <mxCell id="1" parent="0"/>
                <mxCell id="bw-IX-_6H2uLO_dws2v9-1" value="Organizer" style="swimlane;fontStyle=0;childLayout=stackLayout;horizontal=1;startSize=30;horizontalStack=0;resizeParent=1;resizeParentMax=0;resizeLast=0;collapsible=1;marginBottom=0;whiteSpace=wrap;html=1;" parent="1" vertex="1">
                    <mxGeometry x="-230" y="130" width="140" height="150" as="geometry">
                        <mxRectangle x="40" y="160" width="90" height="30" as="alternateBounds"/>
                    </mxGeometry>
                </mxCell>
                <mxCell id="1MxPp7PBHnicv2gRr7QU-12" value="name" style="text;strokeColor=none;fillColor=none;align=left;verticalAlign=middle;spacingLeft=4;spacingRight=4;overflow=hidden;points=[[0,0.5],[1,0.5]];portConstraint=eastwest;rotatable=0;whiteSpace=wrap;html=1;" parent="bw-IX-_6H2uLO_dws2v9-1" vertex="1">
                    <mxGeometry y="30" width="140" height="30" as="geometry"/>
                </mxCell>
                <mxCell id="bw-IX-_6H2uLO_dws2v9-22" value="picture" style="text;strokeColor=none;fillColor=none;align=left;verticalAlign=middle;spacingLeft=4;spacingRight=4;overflow=hidden;points=[[0,0.5],[1,0.5]];portConstraint=eastwest;rotatable=0;whiteSpace=wrap;html=1;" parent="bw-IX-_6H2uLO_dws2v9-1" vertex="1">
                    <mxGeometry y="60" width="140" height="30" as="geometry"/>
                </mxCell>
                <mxCell id="unt-5pMyE67pVbtMl0ob-11" value="website" style="text;strokeColor=none;fillColor=none;align=left;verticalAlign=middle;spacingLeft=4;spacingRight=4;overflow=hidden;points=[[0,0.5],[1,0.5]];portConstraint=eastwest;rotatable=0;whiteSpace=wrap;html=1;" parent="bw-IX-_6H2uLO_dws2v9-1" vertex="1">
                    <mxGeometry y="90" width="140" height="30" as="geometry"/>
                </mxCell>
                <mxCell id="unt-5pMyE67pVbtMl0ob-12" value="description" style="text;strokeColor=none;fillColor=none;align=left;verticalAlign=middle;spacingLeft=4;spacingRight=4;overflow=hidden;points=[[0,0.5],[1,0.5]];portConstraint=eastwest;rotatable=0;whiteSpace=wrap;html=1;" parent="bw-IX-_6H2uLO_dws2v9-1" vertex="1">
                    <mxGeometry y="120" width="140" height="30" as="geometry"/>
                </mxCell>
                <mxCell id="bw-IX-_6H2uLO_dws2v9-5" value="Event" style="swimlane;fontStyle=0;childLayout=stackLayout;horizontal=1;startSize=30;horizontalStack=0;resizeParent=1;resizeParentMax=0;resizeLast=0;collapsible=1;marginBottom=0;whiteSpace=wrap;html=1;" parent="1" vertex="1">
                    <mxGeometry x="390" y="160" width="140" height="210" as="geometry"/>
                </mxCell>
                <mxCell id="bw-IX-_6H2uLO_dws2v9-6" value="title" style="text;strokeColor=none;fillColor=none;align=left;verticalAlign=middle;spacingLeft=4;spacingRight=4;overflow=hidden;points=[[0,0.5],[1,0.5]];portConstraint=eastwest;rotatable=0;whiteSpace=wrap;html=1;" parent="bw-IX-_6H2uLO_dws2v9-5" vertex="1">
                    <mxGeometry y="30" width="140" height="30" as="geometry"/>
                </mxCell>
                <mxCell id="bw-IX-_6H2uLO_dws2v9-23" value="picture" style="text;strokeColor=none;fillColor=none;align=left;verticalAlign=middle;spacingLeft=4;spacingRight=4;overflow=hidden;points=[[0,0.5],[1,0.5]];portConstraint=eastwest;rotatable=0;whiteSpace=wrap;html=1;" parent="bw-IX-_6H2uLO_dws2v9-5" vertex="1">
                    <mxGeometry y="60" width="140" height="30" as="geometry"/>
                </mxCell>
                <mxCell id="bw-IX-_6H2uLO_dws2v9-8" value="date_start" style="text;strokeColor=none;fillColor=none;align=left;verticalAlign=middle;spacingLeft=4;spacingRight=4;overflow=hidden;points=[[0,0.5],[1,0.5]];portConstraint=eastwest;rotatable=0;whiteSpace=wrap;html=1;" parent="bw-IX-_6H2uLO_dws2v9-5" vertex="1">
                    <mxGeometry y="90" width="140" height="30" as="geometry"/>
                </mxCell>
                <mxCell id="1MxPp7PBHnicv2gRr7QU-67" value="date_end" style="text;strokeColor=none;fillColor=none;align=left;verticalAlign=middle;spacingLeft=4;spacingRight=4;overflow=hidden;points=[[0,0.5],[1,0.5]];portConstraint=eastwest;rotatable=0;whiteSpace=wrap;html=1;" parent="bw-IX-_6H2uLO_dws2v9-5" vertex="1">
                    <mxGeometry y="120" width="140" height="30" as="geometry"/>
                </mxCell>
                <mxCell id="aLF69GpE5HT16YqHaLWR-1" value="hour_start" style="text;strokeColor=none;fillColor=none;align=left;verticalAlign=middle;spacingLeft=4;spacingRight=4;overflow=hidden;points=[[0,0.5],[1,0.5]];portConstraint=eastwest;rotatable=0;whiteSpace=wrap;html=1;" parent="bw-IX-_6H2uLO_dws2v9-5" vertex="1">
                    <mxGeometry y="150" width="140" height="30" as="geometry"/>
                </mxCell>
                <mxCell id="aLF69GpE5HT16YqHaLWR-2" value="hour_end" style="text;strokeColor=none;fillColor=none;align=left;verticalAlign=middle;spacingLeft=4;spacingRight=4;overflow=hidden;points=[[0,0.5],[1,0.5]];portConstraint=eastwest;rotatable=0;whiteSpace=wrap;html=1;" parent="bw-IX-_6H2uLO_dws2v9-5" vertex="1">
                    <mxGeometry y="180" width="140" height="30" as="geometry"/>
                </mxCell>
                <mxCell id="1MxPp7PBHnicv2gRr7QU-68" value="" style="endArrow=none;html=1;rounded=0;entryX=0.493;entryY=1.024;entryDx=0;entryDy=0;entryPerimeter=0;" parent="bw-IX-_6H2uLO_dws2v9-5" target="aLF69GpE5HT16YqHaLWR-2" edge="1">
                    <mxGeometry width="50" height="50" relative="1" as="geometry">
                        <mxPoint x="68.91000000000003" y="351.68" as="sourcePoint"/>
                        <mxPoint x="70" y="267.9899999999998" as="targetPoint"/>
                    </mxGeometry>
                </mxCell>
                <mxCell id="bw-IX-_6H2uLO_dws2v9-9" value="CrÃ©er" style="ellipse;whiteSpace=wrap;html=1;" parent="1" vertex="1">
                    <mxGeometry x="140" y="260" width="100" height="40" as="geometry"/>
                </mxCell>
                <mxCell id="bw-IX-_6H2uLO_dws2v9-14" value="" style="endArrow=none;html=1;rounded=0;entryX=0;entryY=0.5;entryDx=0;entryDy=0;exitX=0.25;exitY=0;exitDx=0;exitDy=0;" parent="1" source="bw-IX-_6H2uLO_dws2v9-16" target="bw-IX-_6H2uLO_dws2v9-9" edge="1">
                    <mxGeometry width="50" height="50" relative="1" as="geometry">
                        <mxPoint x="-90" y="325" as="sourcePoint"/>
                        <mxPoint x="230" y="220" as="targetPoint"/>
                    </mxGeometry>
                </mxCell>
                <mxCell id="bw-IX-_6H2uLO_dws2v9-15" value="" style="endArrow=none;html=1;rounded=0;exitX=1;exitY=0.5;exitDx=0;exitDy=0;entryX=-0.029;entryY=0.967;entryDx=0;entryDy=0;entryPerimeter=0;" parent="1" source="bw-IX-_6H2uLO_dws2v9-9" target="bw-IX-_6H2uLO_dws2v9-8" edge="1">
                    <mxGeometry width="50" height="50" relative="1" as="geometry">
                        <mxPoint x="350" y="219.5" as="sourcePoint"/>
                        <mxPoint x="390" y="295" as="targetPoint"/>
                    </mxGeometry>
                </mxCell>
                <mxCell id="bw-IX-_6H2uLO_dws2v9-16" value="0,N" style="text;html=1;strokeColor=none;fillColor=none;align=center;verticalAlign=middle;whiteSpace=wrap;rounded=0;" parent="1" vertex="1">
                    <mxGeometry x="-100" y="280" width="60" height="30" as="geometry"/>
                </mxCell>
                <mxCell id="bw-IX-_6H2uLO_dws2v9-17" value="1,1" style="text;html=1;strokeColor=none;fillColor=none;align=center;verticalAlign=middle;whiteSpace=wrap;rounded=0;" parent="1" vertex="1">
                    <mxGeometry x="340" y="280" width="60" height="30" as="geometry"/>
                </mxCell>
                <mxCell id="bw-IX-_6H2uLO_dws2v9-25" value="Tag" style="swimlane;fontStyle=0;childLayout=stackLayout;horizontal=1;startSize=30;horizontalStack=0;resizeParent=1;resizeParentMax=0;resizeLast=0;collapsible=1;marginBottom=0;whiteSpace=wrap;html=1;" parent="1" vertex="1">
                    <mxGeometry x="390" y="520" width="140" height="60" as="geometry"/>
                </mxCell>
                <mxCell id="bw-IX-_6H2uLO_dws2v9-26" value="name&lt;br&gt;" style="text;strokeColor=none;fillColor=none;align=left;verticalAlign=middle;spacingLeft=4;spacingRight=4;overflow=hidden;points=[[0,0.5],[1,0.5]];portConstraint=eastwest;rotatable=0;whiteSpace=wrap;html=1;" parent="bw-IX-_6H2uLO_dws2v9-25" vertex="1">
                    <mxGeometry y="30" width="140" height="30" as="geometry"/>
                </mxCell>
                <mxCell id="bw-IX-_6H2uLO_dws2v9-29" value="Avoir" style="ellipse;whiteSpace=wrap;html=1;align=center;" parent="1" vertex="1">
                    <mxGeometry x="410" y="440" width="100" height="40" as="geometry"/>
                </mxCell>
                <mxCell id="bw-IX-_6H2uLO_dws2v9-36" value="0,N" style="text;html=1;strokeColor=none;fillColor=none;align=center;verticalAlign=middle;whiteSpace=wrap;rounded=0;" parent="1" vertex="1">
                    <mxGeometry x="450" y="400" width="60" height="30" as="geometry"/>
                </mxCell>
                <mxCell id="bw-IX-_6H2uLO_dws2v9-37" value="0,N" style="text;html=1;strokeColor=none;fillColor=none;align=center;verticalAlign=middle;whiteSpace=wrap;rounded=0;" parent="1" vertex="1">
                    <mxGeometry x="450" y="490" width="60" height="30" as="geometry"/>
                </mxCell>
                <mxCell id="Tn6UdyqkFmI2WBixfoAO-17" value="Band" style="swimlane;fontStyle=0;childLayout=stackLayout;horizontal=1;startSize=30;horizontalStack=0;resizeParent=1;resizeParentMax=0;resizeLast=0;collapsible=1;marginBottom=0;whiteSpace=wrap;html=1;" parent="1" vertex="1">
                    <mxGeometry x="394" y="-290" width="140" height="180" as="geometry"/>
                </mxCell>
                <mxCell id="Tn6UdyqkFmI2WBixfoAO-18" value="stage_name" style="text;strokeColor=none;fillColor=none;align=left;verticalAlign=middle;spacingLeft=4;spacingRight=4;overflow=hidden;points=[[0,0.5],[1,0.5]];portConstraint=eastwest;rotatable=0;whiteSpace=wrap;html=1;" parent="Tn6UdyqkFmI2WBixfoAO-17" vertex="1">
                    <mxGeometry y="30" width="140" height="30" as="geometry"/>
                </mxCell>
                <mxCell id="Tn6UdyqkFmI2WBixfoAO-21" value="area" style="text;strokeColor=none;fillColor=none;align=left;verticalAlign=middle;spacingLeft=4;spacingRight=4;overflow=hidden;points=[[0,0.5],[1,0.5]];portConstraint=eastwest;rotatable=0;whiteSpace=wrap;html=1;" parent="Tn6UdyqkFmI2WBixfoAO-17" vertex="1">
                    <mxGeometry y="60" width="140" height="30" as="geometry"/>
                </mxCell>
                <mxCell id="Tn6UdyqkFmI2WBixfoAO-25" value="picture" style="text;strokeColor=none;fillColor=none;align=left;verticalAlign=middle;spacingLeft=4;spacingRight=4;overflow=hidden;points=[[0,0.5],[1,0.5]];portConstraint=eastwest;rotatable=0;whiteSpace=wrap;html=1;" parent="Tn6UdyqkFmI2WBixfoAO-17" vertex="1">
                    <mxGeometry y="90" width="140" height="30" as="geometry"/>
                </mxCell>
                <mxCell id="Tn6UdyqkFmI2WBixfoAO-28" value="sample" style="text;strokeColor=none;fillColor=none;align=left;verticalAlign=middle;spacingLeft=4;spacingRight=4;overflow=hidden;points=[[0,0.5],[1,0.5]];portConstraint=eastwest;rotatable=0;whiteSpace=wrap;html=1;" parent="Tn6UdyqkFmI2WBixfoAO-17" vertex="1">
                    <mxGeometry y="120" width="140" height="30" as="geometry"/>
                </mxCell>
                <mxCell id="unt-5pMyE67pVbtMl0ob-8" value="description" style="text;strokeColor=none;fillColor=none;align=left;verticalAlign=middle;spacingLeft=4;spacingRight=4;overflow=hidden;points=[[0,0.5],[1,0.5]];portConstraint=eastwest;rotatable=0;whiteSpace=wrap;html=1;" parent="Tn6UdyqkFmI2WBixfoAO-17" vertex="1">
                    <mxGeometry y="150" width="140" height="30" as="geometry"/>
                </mxCell>
                <mxCell id="Tn6UdyqkFmI2WBixfoAO-30" value="Participer" style="ellipse;whiteSpace=wrap;html=1;align=center;" parent="1" vertex="1">
                    <mxGeometry x="410" width="100" height="40" as="geometry"/>
                </mxCell>
                <mxCell id="Tn6UdyqkFmI2WBixfoAO-31" value="" style="endArrow=none;html=1;rounded=0;entryX=0.5;entryY=1;entryDx=0;entryDy=0;exitX=0.5;exitY=0;exitDx=0;exitDy=0;" parent="1" source="bw-IX-_6H2uLO_dws2v9-5" target="Tn6UdyqkFmI2WBixfoAO-30" edge="1">
                    <mxGeometry width="50" height="50" relative="1" as="geometry">
                        <mxPoint x="460" y="160" as="sourcePoint"/>
                        <mxPoint x="510" y="110" as="targetPoint"/>
                    </mxGeometry>
                </mxCell>
                <mxCell id="Tn6UdyqkFmI2WBixfoAO-33" value="0,N" style="text;html=1;strokeColor=none;fillColor=none;align=center;verticalAlign=middle;whiteSpace=wrap;rounded=0;" parent="1" vertex="1">
                    <mxGeometry x="450" y="70" width="60" height="30" as="geometry"/>
                </mxCell>
                <mxCell id="Tn6UdyqkFmI2WBixfoAO-32" value="" style="endArrow=none;html=1;rounded=0;exitX=0.5;exitY=0;exitDx=0;exitDy=0;entryX=0.479;entryY=1.033;entryDx=0;entryDy=0;entryPerimeter=0;" parent="1" source="Tn6UdyqkFmI2WBixfoAO-30" target="unt-5pMyE67pVbtMl0ob-8" edge="1">
                    <mxGeometry width="50" height="50" relative="1" as="geometry">
                        <mxPoint x="460" as="sourcePoint"/>
                        <mxPoint x="460" y="10" as="targetPoint"/>
                    </mxGeometry>
                </mxCell>
                <mxCell id="1MxPp7PBHnicv2gRr7QU-27" value="1,N" style="text;html=1;strokeColor=none;fillColor=none;align=center;verticalAlign=middle;whiteSpace=wrap;rounded=0;" parent="1" vertex="1">
                    <mxGeometry x="-100" y="160" width="60" height="30" as="geometry"/>
                </mxCell>
                <mxCell id="1MxPp7PBHnicv2gRr7QU-31" value="Genre" style="swimlane;fontStyle=0;childLayout=stackLayout;horizontal=1;startSize=30;horizontalStack=0;resizeParent=1;resizeParentMax=0;resizeLast=0;collapsible=1;marginBottom=0;whiteSpace=wrap;html=1;" parent="1" vertex="1">
                    <mxGeometry x="220" y="-470" width="140" height="60" as="geometry"/>
                </mxCell>
                <mxCell id="1MxPp7PBHnicv2gRr7QU-32" value="name" style="text;strokeColor=none;fillColor=none;align=left;verticalAlign=middle;spacingLeft=4;spacingRight=4;overflow=hidden;points=[[0,0.5],[1,0.5]];portConstraint=eastwest;rotatable=0;whiteSpace=wrap;html=1;" parent="1MxPp7PBHnicv2gRr7QU-31" vertex="1">
                    <mxGeometry y="30" width="140" height="30" as="geometry"/>
                </mxCell>
                <mxCell id="1MxPp7PBHnicv2gRr7QU-35" value="Appartenir" style="ellipse;whiteSpace=wrap;html=1;align=center;" parent="1" vertex="1">
                    <mxGeometry x="414" y="-460" width="100" height="40" as="geometry"/>
                </mxCell>
                <mxCell id="1MxPp7PBHnicv2gRr7QU-36" value="" style="endArrow=none;html=1;rounded=0;entryX=0;entryY=0.5;entryDx=0;entryDy=0;" parent="1" target="1MxPp7PBHnicv2gRr7QU-35" edge="1">
                    <mxGeometry width="50" height="50" relative="1" as="geometry">
                        <mxPoint x="360" y="-440" as="sourcePoint"/>
                        <mxPoint x="380" y="-530" as="targetPoint"/>
                    </mxGeometry>
                </mxCell>
                <mxCell id="1MxPp7PBHnicv2gRr7QU-37" value="" style="endArrow=none;html=1;rounded=0;entryX=0.5;entryY=1;entryDx=0;entryDy=0;exitX=0.5;exitY=0;exitDx=0;exitDy=0;" parent="1" source="Tn6UdyqkFmI2WBixfoAO-17" target="1MxPp7PBHnicv2gRr7QU-35" edge="1">
                    <mxGeometry width="50" height="50" relative="1" as="geometry">
                        <mxPoint x="464" y="-220" as="sourcePoint"/>
                        <mxPoint x="510" y="-420" as="targetPoint"/>
                    </mxGeometry>
                </mxCell>
                <mxCell id="1MxPp7PBHnicv2gRr7QU-38" value="0,N" style="text;html=1;strokeColor=none;fillColor=none;align=center;verticalAlign=middle;whiteSpace=wrap;rounded=0;" parent="1" vertex="1">
                    <mxGeometry x="350" y="-440" width="60" height="30" as="geometry"/>
                </mxCell>
                <mxCell id="1MxPp7PBHnicv2gRr7QU-39" value="1,N" style="text;html=1;strokeColor=none;fillColor=none;align=center;verticalAlign=middle;whiteSpace=wrap;rounded=0;" parent="1" vertex="1">
                    <mxGeometry x="414" y="-320" width="60" height="30" as="geometry"/>
                </mxCell>
                <mxCell id="1MxPp7PBHnicv2gRr7QU-51" value="User" style="swimlane;fontStyle=0;childLayout=stackLayout;horizontal=1;startSize=26;horizontalStack=0;resizeParent=1;resizeParentMax=0;resizeLast=0;collapsible=1;marginBottom=0;align=center;fontSize=14;" parent="1" vertex="1">
                    <mxGeometry x="160" y="-26" width="160" height="266" as="geometry"/>
                </mxCell>
                <mxCell id="1MxPp7PBHnicv2gRr7QU-52" value="email" style="text;strokeColor=none;fillColor=none;spacingLeft=4;spacingRight=4;overflow=hidden;rotatable=0;points=[[0,0.5],[1,0.5]];portConstraint=eastwest;fontSize=12;whiteSpace=wrap;html=1;" parent="1MxPp7PBHnicv2gRr7QU-51" vertex="1">
                    <mxGeometry y="26" width="160" height="30" as="geometry"/>
                </mxCell>
                <mxCell id="unt-5pMyE67pVbtMl0ob-1" value="phone_number" style="text;strokeColor=none;fillColor=none;spacingLeft=4;spacingRight=4;overflow=hidden;rotatable=0;points=[[0,0.5],[1,0.5]];portConstraint=eastwest;fontSize=12;whiteSpace=wrap;html=1;" parent="1MxPp7PBHnicv2gRr7QU-51" vertex="1">
                    <mxGeometry y="56" width="160" height="30" as="geometry"/>
                </mxCell>
                <mxCell id="unt-5pMyE67pVbtMl0ob-3" value="firstname" style="text;strokeColor=none;fillColor=none;spacingLeft=4;spacingRight=4;overflow=hidden;rotatable=0;points=[[0,0.5],[1,0.5]];portConstraint=eastwest;fontSize=12;whiteSpace=wrap;html=1;" parent="1MxPp7PBHnicv2gRr7QU-51" vertex="1">
                    <mxGeometry y="86" width="160" height="30" as="geometry"/>
                </mxCell>
                <mxCell id="unt-5pMyE67pVbtMl0ob-4" value="lastname" style="text;strokeColor=none;fillColor=none;spacingLeft=4;spacingRight=4;overflow=hidden;rotatable=0;points=[[0,0.5],[1,0.5]];portConstraint=eastwest;fontSize=12;whiteSpace=wrap;html=1;" parent="1MxPp7PBHnicv2gRr7QU-51" vertex="1">
                    <mxGeometry y="116" width="160" height="30" as="geometry"/>
                </mxCell>
                <mxCell id="unt-5pMyE67pVbtMl0ob-7" value="birthday" style="text;strokeColor=none;fillColor=none;spacingLeft=4;spacingRight=4;overflow=hidden;rotatable=0;points=[[0,0.5],[1,0.5]];portConstraint=eastwest;fontSize=12;whiteSpace=wrap;html=1;" parent="1MxPp7PBHnicv2gRr7QU-51" vertex="1">
                    <mxGeometry y="146" width="160" height="30" as="geometry"/>
                </mxCell>
                <mxCell id="unt-5pMyE67pVbtMl0ob-34" value="role" style="text;strokeColor=none;fillColor=none;spacingLeft=4;spacingRight=4;overflow=hidden;rotatable=0;points=[[0,0.5],[1,0.5]];portConstraint=eastwest;fontSize=12;whiteSpace=wrap;html=1;" parent="1MxPp7PBHnicv2gRr7QU-51" vertex="1">
                    <mxGeometry y="176" width="160" height="30" as="geometry"/>
                </mxCell>
                <mxCell id="1MxPp7PBHnicv2gRr7QU-53" value="password" style="text;strokeColor=none;fillColor=none;spacingLeft=4;spacingRight=4;overflow=hidden;rotatable=0;points=[[0,0.5],[1,0.5]];portConstraint=eastwest;fontSize=12;whiteSpace=wrap;html=1;" parent="1MxPp7PBHnicv2gRr7QU-51" vertex="1">
                    <mxGeometry y="206" width="160" height="30" as="geometry"/>
                </mxCell>
                <mxCell id="unt-5pMyE67pVbtMl0ob-2" value="picture" style="text;strokeColor=none;fillColor=none;spacingLeft=4;spacingRight=4;overflow=hidden;rotatable=0;points=[[0,0.5],[1,0.5]];portConstraint=eastwest;fontSize=12;whiteSpace=wrap;html=1;" parent="1MxPp7PBHnicv2gRr7QU-51" vertex="1">
                    <mxGeometry y="236" width="160" height="30" as="geometry"/>
                </mxCell>
                <mxCell id="1MxPp7PBHnicv2gRr7QU-55" value="Etre" style="ellipse;whiteSpace=wrap;html=1;align=center;" parent="1" vertex="1">
                    <mxGeometry x="-30" y="140" width="100" height="40" as="geometry"/>
                </mxCell>
                <mxCell id="1MxPp7PBHnicv2gRr7QU-56" value="Etre" style="ellipse;whiteSpace=wrap;html=1;align=center;" parent="1" vertex="1">
                    <mxGeometry x="180" y="-80" width="100" height="40" as="geometry"/>
                </mxCell>
                <mxCell id="1MxPp7PBHnicv2gRr7QU-57" value="" style="endArrow=none;html=1;rounded=0;entryX=0.5;entryY=1;entryDx=0;entryDy=0;exitX=0.438;exitY=-0.004;exitDx=0;exitDy=0;exitPerimeter=0;" parent="1" source="1MxPp7PBHnicv2gRr7QU-51" target="1MxPp7PBHnicv2gRr7QU-56" edge="1">
                    <mxGeometry width="50" height="50" relative="1" as="geometry">
                        <mxPoint x="260" as="sourcePoint"/>
                        <mxPoint x="270" y="-100" as="targetPoint"/>
                    </mxGeometry>
                </mxCell>
                <mxCell id="1MxPp7PBHnicv2gRr7QU-58" value="" style="endArrow=none;html=1;rounded=0;entryX=0;entryY=0.5;entryDx=0;entryDy=0;" parent="1" target="1MxPp7PBHnicv2gRr7QU-55" edge="1">
                    <mxGeometry width="50" height="50" relative="1" as="geometry">
                        <mxPoint x="-90" y="160" as="sourcePoint"/>
                        <mxPoint x="70" y="140" as="targetPoint"/>
                    </mxGeometry>
                </mxCell>
                <mxCell id="1MxPp7PBHnicv2gRr7QU-59" value="" style="endArrow=none;html=1;rounded=0;exitX=1;exitY=0.5;exitDx=0;exitDy=0;" parent="1" source="1MxPp7PBHnicv2gRr7QU-56" edge="1">
                    <mxGeometry width="50" height="50" relative="1" as="geometry">
                        <mxPoint x="309" y="-60" as="sourcePoint"/>
                        <mxPoint x="440" y="-61" as="targetPoint"/>
                    </mxGeometry>
                </mxCell>
                <mxCell id="1MxPp7PBHnicv2gRr7QU-61" value="" style="endArrow=none;html=1;rounded=0;exitX=0.5;exitY=0;exitDx=0;exitDy=0;entryX=0.867;entryY=0;entryDx=0;entryDy=0;entryPerimeter=0;" parent="1" target="1MxPp7PBHnicv2gRr7QU-65" edge="1">
                    <mxGeometry width="50" height="50" relative="1" as="geometry">
                        <mxPoint x="70" y="160" as="sourcePoint"/>
                        <mxPoint x="70" y="80" as="targetPoint"/>
                    </mxGeometry>
                </mxCell>
                <mxCell id="1MxPp7PBHnicv2gRr7QU-63" value="0,N" style="text;html=1;strokeColor=none;fillColor=none;align=center;verticalAlign=middle;whiteSpace=wrap;rounded=0;" parent="1" vertex="1">
                    <mxGeometry x="240" y="-50" width="60" height="30" as="geometry"/>
                </mxCell>
                <mxCell id="1MxPp7PBHnicv2gRr7QU-64" value="1,N" style="text;html=1;strokeColor=none;fillColor=none;align=center;verticalAlign=middle;whiteSpace=wrap;rounded=0;" parent="1" vertex="1">
                    <mxGeometry x="394" y="-110" width="60" height="30" as="geometry"/>
                </mxCell>
                <mxCell id="1MxPp7PBHnicv2gRr7QU-65" value="0,N" style="text;html=1;strokeColor=none;fillColor=none;align=center;verticalAlign=middle;whiteSpace=wrap;rounded=0;" parent="1" vertex="1">
                    <mxGeometry x="110" y="160" width="60" height="30" as="geometry"/>
                </mxCell>
                <mxCell id="1MxPp7PBHnicv2gRr7QU-70" value="" style="endArrow=none;html=1;rounded=0;entryX=0.5;entryY=1;entryDx=0;entryDy=0;exitX=0.5;exitY=0;exitDx=0;exitDy=0;" parent="1" source="bw-IX-_6H2uLO_dws2v9-25" target="bw-IX-_6H2uLO_dws2v9-29" edge="1">
                    <mxGeometry width="50" height="50" relative="1" as="geometry">
                        <mxPoint x="455" y="520" as="sourcePoint"/>
                        <mxPoint x="505" y="470" as="targetPoint"/>
                    </mxGeometry>
                </mxCell>
                <mxCell id="1MxPp7PBHnicv2gRr7QU-82" value="" style="endArrow=none;html=1;rounded=0;" parent="1" edge="1">
                    <mxGeometry width="50" height="50" relative="1" as="geometry">
                        <mxPoint x="-120" y="320" as="sourcePoint"/>
                        <mxPoint x="-120" y="320" as="targetPoint"/>
                    </mxGeometry>
                </mxCell>
                <mxCell id="1MxPp7PBHnicv2gRr7QU-84" value="" style="endArrow=none;html=1;rounded=0;" parent="1" edge="1">
                    <mxGeometry width="50" height="50" relative="1" as="geometry">
                        <mxPoint x="-120" y="-240" as="sourcePoint"/>
                        <mxPoint x="-120" y="-239.99999999999977" as="targetPoint"/>
                    </mxGeometry>
                </mxCell>
                <mxCell id="unt-5pMyE67pVbtMl0ob-13" value="" style="endArrow=none;html=1;rounded=0;" parent="1" edge="1">
                    <mxGeometry width="50" height="50" relative="1" as="geometry">
                        <mxPoint x="530" y="570" as="sourcePoint"/>
                        <mxPoint x="620" y="570" as="targetPoint"/>
                    </mxGeometry>
                </mxCell>
                <mxCell id="unt-5pMyE67pVbtMl0ob-14" value="" style="endArrow=none;html=1;rounded=0;" parent="1" source="unt-5pMyE67pVbtMl0ob-16" edge="1">
                    <mxGeometry width="50" height="50" relative="1" as="geometry">
                        <mxPoint x="800" y="570" as="sourcePoint"/>
                        <mxPoint x="620" y="-160" as="targetPoint"/>
                    </mxGeometry>
                </mxCell>
                <mxCell id="unt-5pMyE67pVbtMl0ob-15" value="" style="endArrow=none;html=1;rounded=0;" parent="1" edge="1">
                    <mxGeometry width="50" height="50" relative="1" as="geometry">
                        <mxPoint x="534" y="-160" as="sourcePoint"/>
                        <mxPoint x="620" y="-160" as="targetPoint"/>
                    </mxGeometry>
                </mxCell>
                <mxCell id="unt-5pMyE67pVbtMl0ob-17" value="" style="endArrow=none;html=1;rounded=0;" parent="1" target="unt-5pMyE67pVbtMl0ob-16" edge="1">
                    <mxGeometry width="50" height="50" relative="1" as="geometry">
                        <mxPoint x="620" y="570" as="sourcePoint"/>
                        <mxPoint x="800" y="-82" as="targetPoint"/>
                    </mxGeometry>
                </mxCell>
                <mxCell id="unt-5pMyE67pVbtMl0ob-16" value="Avoir" style="ellipse;whiteSpace=wrap;html=1;align=center;" parent="1" vertex="1">
                    <mxGeometry x="570" y="180" width="100" height="40" as="geometry"/>
                </mxCell>
                <mxCell id="unt-5pMyE67pVbtMl0ob-19" value="1,N" style="text;html=1;strokeColor=none;fillColor=none;align=center;verticalAlign=middle;whiteSpace=wrap;rounded=0;" parent="1" vertex="1">
                    <mxGeometry x="450" y="-110" width="60" height="30" as="geometry"/>
                </mxCell>
                <mxCell id="unt-5pMyE67pVbtMl0ob-32" value="0,N" style="text;html=1;strokeColor=none;fillColor=none;align=center;verticalAlign=middle;whiteSpace=wrap;rounded=0;" parent="1" vertex="1">
                    <mxGeometry x="520" y="-160" width="60" height="30" as="geometry"/>
                </mxCell>
                <mxCell id="unt-5pMyE67pVbtMl0ob-33" value="0,N" style="text;html=1;strokeColor=none;fillColor=none;align=center;verticalAlign=middle;whiteSpace=wrap;rounded=0;" parent="1" vertex="1">
                    <mxGeometry x="520" y="570" width="60" height="30" as="geometry"/>
                </mxCell>
                <mxCell id="aLF69GpE5HT16YqHaLWR-17" value="" style="endArrow=none;html=1;rounded=0;exitX=0.35;exitY=-0.017;exitDx=0;exitDy=0;exitPerimeter=0;" parent="1" source="bw-IX-_6H2uLO_dws2v9-1" edge="1">
                    <mxGeometry width="50" height="50" relative="1" as="geometry">
                        <mxPoint x="-230" y="-20" as="sourcePoint"/>
                        <mxPoint x="-181" y="40" as="targetPoint"/>
                    </mxGeometry>
                </mxCell>
                <mxCell id="aLF69GpE5HT16YqHaLWR-21" value="" style="endArrow=none;html=1;rounded=0;" parent="1" source="aLF69GpE5HT16YqHaLWR-22" edge="1">
                    <mxGeometry width="50" height="50" relative="1" as="geometry">
                        <mxPoint x="-180" y="40" as="sourcePoint"/>
                        <mxPoint x="160" y="40" as="targetPoint"/>
                    </mxGeometry>
                </mxCell>
                <mxCell id="aLF69GpE5HT16YqHaLWR-23" value="" style="endArrow=none;html=1;rounded=0;" parent="1" target="aLF69GpE5HT16YqHaLWR-22" edge="1">
                    <mxGeometry width="50" height="50" relative="1" as="geometry">
                        <mxPoint x="-180" y="40" as="sourcePoint"/>
                        <mxPoint x="160" y="40" as="targetPoint"/>
                    </mxGeometry>
                </mxCell>
                <mxCell id="aLF69GpE5HT16YqHaLWR-22" value="Suivre" style="ellipse;whiteSpace=wrap;html=1;align=center;" parent="1" vertex="1">
                    <mxGeometry x="-230" y="20" width="100" height="40" as="geometry"/>
                </mxCell>
                <mxCell id="aLF69GpE5HT16YqHaLWR-24" value="" style="endArrow=none;html=1;rounded=0;" parent="1" edge="1">
                    <mxGeometry width="50" height="50" relative="1" as="geometry">
                        <mxPoint x="80" as="sourcePoint"/>
                        <mxPoint x="160" as="targetPoint"/>
                    </mxGeometry>
                </mxCell>
                <mxCell id="aLF69GpE5HT16YqHaLWR-25" value="" style="endArrow=none;html=1;rounded=0;" parent="1" source="aLF69GpE5HT16YqHaLWR-27" edge="1">
                    <mxGeometry width="50" height="50" relative="1" as="geometry">
                        <mxPoint x="80" as="sourcePoint"/>
                        <mxPoint x="80" y="-120" as="targetPoint"/>
                    </mxGeometry>
                </mxCell>
                <mxCell id="aLF69GpE5HT16YqHaLWR-26" value="" style="endArrow=none;html=1;rounded=0;" parent="1" edge="1">
                    <mxGeometry width="50" height="50" relative="1" as="geometry">
                        <mxPoint x="80" y="-120" as="sourcePoint"/>
                        <mxPoint x="390" y="-120" as="targetPoint"/>
                    </mxGeometry>
                </mxCell>
                <mxCell id="aLF69GpE5HT16YqHaLWR-28" value="" style="endArrow=none;html=1;rounded=0;" parent="1" target="aLF69GpE5HT16YqHaLWR-27" edge="1">
                    <mxGeometry width="50" height="50" relative="1" as="geometry">
                        <mxPoint x="80" as="sourcePoint"/>
                        <mxPoint x="80" y="-120" as="targetPoint"/>
                    </mxGeometry>
                </mxCell>
                <mxCell id="aLF69GpE5HT16YqHaLWR-27" value="Suivre" style="ellipse;whiteSpace=wrap;html=1;align=center;" parent="1" vertex="1">
                    <mxGeometry x="30" y="-140" width="100" height="40" as="geometry"/>
                </mxCell>
                <mxCell id="aLF69GpE5HT16YqHaLWR-29" value="0,N" style="text;html=1;strokeColor=none;fillColor=none;align=center;verticalAlign=middle;whiteSpace=wrap;rounded=0;" parent="1" vertex="1">
                    <mxGeometry x="110" y="40" width="60" height="30" as="geometry"/>
                </mxCell>
                <mxCell id="aLF69GpE5HT16YqHaLWR-30" value="0,N" style="text;html=1;strokeColor=none;fillColor=none;align=center;verticalAlign=middle;whiteSpace=wrap;rounded=0;" parent="1" vertex="1">
                    <mxGeometry x="340" y="-120" width="60" height="30" as="geometry"/>
                </mxCell>
                <mxCell id="aLF69GpE5HT16YqHaLWR-32" value="0,N" style="text;html=1;strokeColor=none;fillColor=none;align=center;verticalAlign=middle;whiteSpace=wrap;rounded=0;" parent="1" vertex="1">
                    <mxGeometry x="110" y="-30" width="60" height="30" as="geometry"/>
                </mxCell>
                <mxCell id="aLF69GpE5HT16YqHaLWR-33" value="0,N" style="text;html=1;align=center;verticalAlign=middle;resizable=0;points=[];autosize=1;strokeColor=none;fillColor=none;" parent="1" vertex="1">
                    <mxGeometry x="-180" y="100" width="40" height="30" as="geometry"/>
                </mxCell>
                <mxCell id="aLF69GpE5HT16YqHaLWR-39" value="Address" style="swimlane;fontStyle=0;childLayout=stackLayout;horizontal=1;startSize=30;horizontalStack=0;resizeParent=1;resizeParentMax=0;resizeLast=0;collapsible=1;marginBottom=0;whiteSpace=wrap;html=1;" parent="1" vertex="1">
                    <mxGeometry x="-483" y="-125" width="140" height="150" as="geometry"/>
                </mxCell>
                <mxCell id="aLF69GpE5HT16YqHaLWR-40" value="address" style="text;strokeColor=none;fillColor=none;align=left;verticalAlign=middle;spacingLeft=4;spacingRight=4;overflow=hidden;points=[[0,0.5],[1,0.5]];portConstraint=eastwest;rotatable=0;whiteSpace=wrap;html=1;" parent="aLF69GpE5HT16YqHaLWR-39" vertex="1">
                    <mxGeometry y="30" width="140" height="30" as="geometry"/>
                </mxCell>
                <mxCell id="aLF69GpE5HT16YqHaLWR-41" value="zipcode" style="text;strokeColor=none;fillColor=none;align=left;verticalAlign=middle;spacingLeft=4;spacingRight=4;overflow=hidden;points=[[0,0.5],[1,0.5]];portConstraint=eastwest;rotatable=0;whiteSpace=wrap;html=1;" parent="aLF69GpE5HT16YqHaLWR-39" vertex="1">
                    <mxGeometry y="60" width="140" height="30" as="geometry"/>
                </mxCell>
                <mxCell id="aLF69GpE5HT16YqHaLWR-42" value="county" style="text;strokeColor=none;fillColor=none;align=left;verticalAlign=middle;spacingLeft=4;spacingRight=4;overflow=hidden;points=[[0,0.5],[1,0.5]];portConstraint=eastwest;rotatable=0;whiteSpace=wrap;html=1;" parent="aLF69GpE5HT16YqHaLWR-39" vertex="1">
                    <mxGeometry y="90" width="140" height="30" as="geometry"/>
                </mxCell>
                <mxCell id="aLF69GpE5HT16YqHaLWR-43" value="city" style="text;strokeColor=none;fillColor=none;align=left;verticalAlign=middle;spacingLeft=4;spacingRight=4;overflow=hidden;points=[[0,0.5],[1,0.5]];portConstraint=eastwest;rotatable=0;whiteSpace=wrap;html=1;" parent="aLF69GpE5HT16YqHaLWR-39" vertex="1">
                    <mxGeometry y="120" width="140" height="30" as="geometry"/>
                </mxCell>
                <mxCell id="aLF69GpE5HT16YqHaLWR-44" value="" style="endArrow=none;html=1;rounded=0;entryX=0.329;entryY=1;entryDx=0;entryDy=0;entryPerimeter=0;" parent="1" target="unt-5pMyE67pVbtMl0ob-8" edge="1">
                    <mxGeometry width="50" height="50" relative="1" as="geometry">
                        <mxPoint x="439" y="-60" as="sourcePoint"/>
                        <mxPoint x="489" y="-110" as="targetPoint"/>
                    </mxGeometry>
                </mxCell>
                <mxCell id="aLF69GpE5HT16YqHaLWR-45" value="" style="endArrow=none;html=1;rounded=0;" parent="1" edge="1">
                    <mxGeometry width="50" height="50" relative="1" as="geometry">
                        <mxPoint x="-420" y="-125" as="sourcePoint"/>
                        <mxPoint x="-420" y="-210" as="targetPoint"/>
                    </mxGeometry>
                </mxCell>
                <mxCell id="aLF69GpE5HT16YqHaLWR-46" value="" style="endArrow=none;html=1;rounded=0;" parent="1" source="aLF69GpE5HT16YqHaLWR-52" edge="1">
                    <mxGeometry width="50" height="50" relative="1" as="geometry">
                        <mxPoint x="-420" y="-210" as="sourcePoint"/>
                        <mxPoint x="390" y="-210" as="targetPoint"/>
                    </mxGeometry>
                </mxCell>
                <mxCell id="aLF69GpE5HT16YqHaLWR-47" value="" style="endArrow=none;html=1;rounded=0;" parent="1" edge="1">
                    <mxGeometry width="50" height="50" relative="1" as="geometry">
                        <mxPoint x="-440" y="360" as="sourcePoint"/>
                        <mxPoint x="-440" y="25" as="targetPoint"/>
                    </mxGeometry>
                </mxCell>
                <mxCell id="aLF69GpE5HT16YqHaLWR-48" value="" style="endArrow=none;html=1;rounded=0;" parent="1" edge="1">
                    <mxGeometry width="50" height="50" relative="1" as="geometry">
                        <mxPoint x="-400" y="240" as="sourcePoint"/>
                        <mxPoint x="-400" y="25" as="targetPoint"/>
                    </mxGeometry>
                </mxCell>
                <mxCell id="aLF69GpE5HT16YqHaLWR-49" value="" style="endArrow=none;html=1;rounded=0;" parent="1" edge="1">
                    <mxGeometry width="50" height="50" relative="1" as="geometry">
                        <mxPoint x="-400" y="240" as="sourcePoint"/>
                        <mxPoint x="-230" y="240" as="targetPoint"/>
                    </mxGeometry>
                </mxCell>
                <mxCell id="aLF69GpE5HT16YqHaLWR-50" value="" style="endArrow=none;html=1;rounded=0;" parent="1" source="aLF69GpE5HT16YqHaLWR-54" edge="1">
                    <mxGeometry width="50" height="50" relative="1" as="geometry">
                        <mxPoint x="-438" y="360" as="sourcePoint"/>
                        <mxPoint x="390" y="360" as="targetPoint"/>
                    </mxGeometry>
                </mxCell>
                <mxCell id="aLF69GpE5HT16YqHaLWR-53" value="Situer" style="ellipse;whiteSpace=wrap;html=1;align=center;" parent="1" vertex="1">
                    <mxGeometry x="-430" y="220" width="100" height="40" as="geometry"/>
                </mxCell>
                <mxCell id="aLF69GpE5HT16YqHaLWR-55" value="" style="endArrow=none;html=1;rounded=0;" parent="1" target="aLF69GpE5HT16YqHaLWR-54" edge="1">
                    <mxGeometry width="50" height="50" relative="1" as="geometry">
                        <mxPoint x="-438" y="360" as="sourcePoint"/>
                        <mxPoint x="390" y="360" as="targetPoint"/>
                    </mxGeometry>
                </mxCell>
                <mxCell id="aLF69GpE5HT16YqHaLWR-54" value="Situer" style="ellipse;whiteSpace=wrap;html=1;align=center;" parent="1" vertex="1">
                    <mxGeometry x="-490" y="340" width="100" height="40" as="geometry"/>
                </mxCell>
                <mxCell id="aLF69GpE5HT16YqHaLWR-56" value="" style="endArrow=none;html=1;rounded=0;" parent="1" target="aLF69GpE5HT16YqHaLWR-52" edge="1">
                    <mxGeometry width="50" height="50" relative="1" as="geometry">
                        <mxPoint x="-420" y="-210" as="sourcePoint"/>
                        <mxPoint x="390" y="-210" as="targetPoint"/>
                    </mxGeometry>
                </mxCell>
                <mxCell id="aLF69GpE5HT16YqHaLWR-52" value="Situer" style="ellipse;whiteSpace=wrap;html=1;align=center;" parent="1" vertex="1">
                    <mxGeometry x="-470" y="-230" width="100" height="40" as="geometry"/>
                </mxCell>
                <mxCell id="2" value="1,1" style="text;html=1;align=center;verticalAlign=middle;resizable=0;points=[];autosize=1;strokeColor=none;fillColor=none;" vertex="1" parent="1">
                    <mxGeometry x="-410" y="105" width="40" height="30" as="geometry"/>
                </mxCell>
                <mxCell id="3" value="1,1" style="text;html=1;align=center;verticalAlign=middle;resizable=0;points=[];autosize=1;strokeColor=none;fillColor=none;" vertex="1" parent="1">
                    <mxGeometry x="-300" y="215" width="40" height="30" as="geometry"/>
                </mxCell>
                <mxCell id="4" value="1,1" style="text;html=1;align=center;verticalAlign=middle;resizable=0;points=[];autosize=1;strokeColor=none;fillColor=none;" vertex="1" parent="1">
                    <mxGeometry x="-430" y="-165" width="40" height="30" as="geometry"/>
                </mxCell>
                <mxCell id="5" value="1,1" style="text;html=1;align=center;verticalAlign=middle;resizable=0;points=[];autosize=1;strokeColor=none;fillColor=none;" vertex="1" parent="1">
                    <mxGeometry x="330" y="-215" width="40" height="30" as="geometry"/>
                </mxCell>
                <mxCell id="7" value="1,1" style="text;html=1;align=center;verticalAlign=middle;resizable=0;points=[];autosize=1;strokeColor=none;fillColor=none;" vertex="1" parent="1">
                    <mxGeometry x="-480" y="35" width="40" height="30" as="geometry"/>
                </mxCell>
                <mxCell id="8" value="1,1" style="text;html=1;align=center;verticalAlign=middle;resizable=0;points=[];autosize=1;strokeColor=none;fillColor=none;" vertex="1" parent="1">
                    <mxGeometry x="340" y="335" width="40" height="30" as="geometry"/>
                </mxCell>
            </root>
        </mxGraphModel>
    </diagram>
</mxfile>